<?xml version="1.0" encoding="utf-8"?>
<!-- Generator: Adobe Illustrator 16.0.0, SVG Export Plug-In . SVG Version: 6.00 Build 0)  -->
<!DOCTYPE svg PUBLIC "-//W3C//DTD SVG 1.1//EN" "http://www.w3.org/Graphics/SVG/1.1/DTD/svg11.dtd">
<svg version="1.1" id="Layer_1" xmlns="http://www.w3.org/2000/svg" xmlns:xlink="http://www.w3.org/1999/xlink" x="0px" y="0px"
	 width="177.867px" height="178.315px" viewBox="0 0 177.867 178.315" enable-background="new 0 0 177.867 178.315"
	 xml:space="preserve">
<g>
	<circle fill="#FFFFFF" cx="88.463" cy="88.934" r="88.934"/>
	<g>
		<g>
			<path fill="#FFFFFF" d="M88.611,29.42c-12.106,0-21.92,9.812-21.92,21.919V83c0,12.104,9.814,21.918,21.92,21.918
				c12.105,0,21.918-9.814,21.918-21.918V51.339C110.529,39.232,100.716,29.42,88.611,29.42"/>
			<rect x="66.69" y="72.04" fill="#86AEDD" width="43.839" height="9.742"/>
			<g opacity="0.102">
				<g>
					<defs>
						<rect id="SVGID_1_" x="66.69" y="81.782" width="43.839" height="7.307"/>
					</defs>
					<clipPath id="SVGID_2_">
						<use xlink:href="#SVGID_1_"  overflow="visible"/>
					</clipPath>
					<path clip-path="url(#SVGID_2_)" fill="#010101" d="M71.562,86.653h2.435v-2.437h-2.435V86.653z M69.126,89.089h2.436v-2.436
						h-2.436V89.089z M66.69,86.653h2.436v-2.437H66.69V86.653z M71.562,81.782h-2.436v2.435h2.436V81.782z M110.529,86.653h-2.436
						v2.436h2.436V86.653z M100.787,86.653h2.436v-2.437h-2.436V86.653z M105.658,86.653h2.436v-2.437h-2.436V86.653z
						 M103.223,89.089h2.436v-2.436h-2.436V89.089z M110.529,81.782h-2.436v2.435h2.436V81.782z M105.658,81.782h-2.436v2.435h2.436
						V81.782z M95.916,86.653h2.436v-2.437h-2.436V86.653z M93.48,89.089h2.436v-2.436H93.48V89.089z M91.045,86.653h2.436v-2.437
						h-2.436V86.653z M88.611,89.089h2.434v-2.436h-2.434V89.089z M98.352,89.089h2.436v-2.436h-2.436V89.089z M86.174,86.653h2.437
						v-2.437h-2.437V86.653z M83.739,89.089h2.435v-2.436h-2.435V89.089z M76.433,86.653h2.435v-2.437h-2.435V86.653z
						 M81.304,86.653h2.436v-2.437h-2.436V86.653z M78.868,89.089h2.436v-2.436h-2.436V89.089z M95.916,81.782H93.48v2.435h2.436
						V81.782z M91.045,81.782h-2.434v2.435h2.434V81.782z M100.787,81.782h-2.436v2.435h2.436V81.782z M86.174,81.782h-2.435v2.435
						h2.435V81.782z M81.304,81.782h-2.436v2.435h2.436V81.782z M73.997,89.089h2.437v-2.436h-2.437V89.089z M76.433,81.782h-2.437
						v2.435h2.437V81.782z"/>
				</g>
			</g>
			<g opacity="0.851">
				<g>
					<defs>
						<rect id="SVGID_3_" x="52.078" y="24.549" width="73.062" height="124.208"/>
					</defs>
					<clipPath id="SVGID_4_">
						<use xlink:href="#SVGID_3_"  overflow="visible"/>
					</clipPath>
					<path clip-path="url(#SVGID_4_)" fill="#010101" d="M88.611,109.79c14.795,0,26.789-11.994,26.789-26.79V51.339
						c0-14.796-11.993-26.79-26.789-26.79c-14.795,0-26.791,11.994-26.791,26.79V83C61.82,97.795,73.816,109.79,88.611,109.79
						 M66.69,51.339c0-12.106,9.814-21.919,21.92-21.919c12.105,0,21.918,9.812,21.918,21.919V83
						c0,12.104-9.813,21.918-21.918,21.918c-12.106,0-21.92-9.814-21.92-21.918V51.339z M125.141,83v-9.742
						c0-1.346-1.089-2.436-2.434-2.436c-1.347,0-2.436,1.09-2.436,2.436V83c0,17.485-14.176,31.661-31.661,31.661
						c-17.486,0-31.661-14.176-31.661-31.661v-9.742c0-1.346-1.09-2.436-2.436-2.436c-1.346,0-2.436,1.09-2.436,2.436V83
						c0,19.358,15.058,35.188,34.096,36.442v24.445h-26.79c-1.345,0-2.435,1.09-2.435,2.434c0,1.346,1.089,2.436,2.435,2.436h58.452
						c1.346,0,2.436-1.09,2.436-2.436c0-1.344-1.09-2.434-2.436-2.434H91.045v-24.445C110.084,118.188,125.141,102.358,125.141,83"
						/>
				</g>
			</g>
		</g>
		<g>
			<path d="M88.934,178.315c-23.755,0-46.088-9.25-62.886-26.047C9.25,135.469,0,113.137,0,89.382
				c0-23.755,9.25-46.088,26.048-62.886C42.845,9.699,65.179,0.448,88.934,0.448s46.088,9.251,62.886,26.048
				c16.798,16.798,26.048,39.131,26.048,62.886c0,23.755-9.25,46.087-26.048,62.886C135.021,169.065,112.688,178.315,88.934,178.315
				z M88.934,8.701c-44.488,0-80.681,36.193-80.681,80.681c0,44.488,36.193,80.681,80.681,80.681
				c44.488,0,80.681-36.193,80.681-80.681C169.614,44.895,133.422,8.701,88.934,8.701z"/>
		</g>
	</g>
</g>
</svg>
