<?xml version="1.0" encoding="utf-8"?>
<!-- Generator: Adobe Illustrator 16.0.0, SVG Export Plug-In . SVG Version: 6.00 Build 0)  -->
<!DOCTYPE svg PUBLIC "-//W3C//DTD SVG 1.1//EN" "http://www.w3.org/Graphics/SVG/1.1/DTD/svg11.dtd">
<svg version="1.1" id="Layer_1" xmlns="http://www.w3.org/2000/svg" xmlns:xlink="http://www.w3.org/1999/xlink" x="0px" y="0px"
	 width="177.867px" height="178.315px" viewBox="0 0 177.867 178.315" enable-background="new 0 0 177.867 178.315"
	 xml:space="preserve">
<circle fill="#FFFFFF" cx="88.184" cy="88.5" r="87.184"/>
<g>
	<g>
		<g>
			<path fill="#FFFFFF" d="M54.829,41.581c-0.123,0.095-0.244,0.192-0.366,0.287c-0.738,0.582-1.464,1.182-2.173,1.799
				c-0.111,0.096-0.223,0.191-0.335,0.29c-2.418,2.136-4.65,4.478-6.673,6.995c-0.123,0.154-0.243,0.31-0.364,0.465
				c-0.539,0.685-1.061,1.382-1.569,2.092c-0.129,0.182-0.261,0.362-0.387,0.545c-0.538,0.771-1.057,1.556-1.555,2.354
				c-0.062,0.098-0.127,0.194-0.188,0.293c-0.573,0.93-1.123,1.878-1.643,2.843c-0.019,0.036-0.037,0.073-0.055,0.108
				c-0.471,0.879-0.916,1.776-1.342,2.682c-0.115,0.249-0.227,0.501-0.34,0.751c-0.321,0.716-0.631,1.439-0.926,2.17
				c-0.115,0.292-0.232,0.584-0.346,0.877c-0.287,0.753-0.556,1.515-0.812,2.284c-0.082,0.247-0.172,0.489-0.249,0.737
				c-0.325,1.02-0.626,2.05-0.892,3.093c-0.02,0.078-0.037,0.16-0.056,0.239c-0.237,0.946-0.449,1.905-0.638,2.87
				c-0.064,0.328-0.119,0.661-0.178,0.992c-0.13,0.735-0.248,1.475-0.35,2.219c-0.052,0.373-0.1,0.747-0.143,1.122
				c-0.089,0.752-0.156,1.509-0.216,2.27c-0.025,0.34-0.058,0.677-0.077,1.019c-0.062,1.093-0.104,2.191-0.104,3.301v28.837h0.115
				c0.437-4.605,2.115-8.844,4.691-12.389V86.277c0-1.027,0.039-2.046,0.098-3.06c0.019-0.312,0.048-0.621,0.07-0.932
				c0.055-0.713,0.122-1.423,0.205-2.126c0.04-0.337,0.081-0.672,0.128-1.006c0.1-0.726,0.218-1.446,0.347-2.162
				c0.051-0.268,0.093-0.537,0.146-0.804c0.193-0.979,0.41-1.951,0.657-2.911c0.021-0.075,0.044-0.148,0.064-0.222
				c0.233-0.882,0.491-1.753,0.769-2.616c0.083-0.26,0.175-0.517,0.263-0.775c0.234-0.695,0.484-1.383,0.75-2.064
				c0.1-0.258,0.199-0.516,0.304-0.771c0.308-0.758,0.633-1.505,0.976-2.245c0.066-0.142,0.126-0.287,0.193-0.428
				c0.434-0.915,0.893-1.814,1.377-2.697c0.018-0.034,0.038-0.066,0.057-0.099c0.455-0.826,0.936-1.633,1.434-2.431
				c0.105-0.168,0.215-0.334,0.322-0.501c0.441-0.688,0.898-1.363,1.37-2.029c0.105-0.149,0.21-0.298,0.316-0.446
				c1.768-2.433,3.741-4.704,5.896-6.79c0.095-0.092,0.191-0.183,0.286-0.274c0.655-0.624,1.325-1.231,2.013-1.822
				c0.075-0.063,0.149-0.129,0.226-0.195c1.564-1.326,3.205-2.564,4.923-3.701l-3.464-3.463
				C56.515,40.308,55.665,40.935,54.829,41.581 M37.662,117.518c0,4.89,1.734,9.362,4.602,12.876
				c0.584,0.717,1.202,1.406,1.877,2.037c3.102,2.896,7.106,4.839,11.545,5.36V97.245C45.538,98.436,37.662,107.051,37.662,117.518
				 M136.945,105.31c-3.274-4.376-8.264-7.396-13.971-8.064v40.546c3.17-0.372,6.12-1.47,8.676-3.122
				c2.968-1.918,5.396-4.59,7.036-7.737c1.47-2.817,2.312-6.015,2.312-9.414c0-1.836-0.255-3.609-0.709-5.302
				C139.609,109.688,138.469,107.349,136.945,105.31 M145.701,82.976c-0.02-0.341-0.053-0.678-0.078-1.019
				c-0.057-0.761-0.127-1.518-0.214-2.27c-0.044-0.375-0.093-0.749-0.142-1.122c-0.104-0.744-0.221-1.483-0.352-2.219
				c-0.059-0.331-0.112-0.664-0.176-0.992c-0.19-0.965-0.401-1.924-0.64-2.87c-0.021-0.08-0.035-0.161-0.056-0.239
				c-0.268-1.043-0.567-2.073-0.892-3.093c-0.079-0.248-0.166-0.49-0.249-0.737c-0.257-0.769-0.526-1.531-0.812-2.284
				c-0.113-0.293-0.23-0.586-0.347-0.877c-0.293-0.73-0.602-1.454-0.925-2.17c-0.113-0.25-0.224-0.502-0.341-0.751
				c-0.425-0.906-0.87-1.803-1.34-2.682c-0.021-0.036-0.036-0.072-0.056-0.108c-0.521-0.964-1.068-1.913-1.643-2.843
				c-0.06-0.099-0.127-0.195-0.188-0.293c-0.499-0.798-1.018-1.583-1.555-2.354c-0.129-0.184-0.258-0.364-0.389-0.545
				c-0.507-0.71-1.027-1.407-1.566-2.092c-0.122-0.155-0.243-0.311-0.365-0.465c-2.024-2.517-4.256-4.859-6.676-6.995
				c-0.109-0.099-0.222-0.194-0.333-0.29c-0.708-0.617-1.435-1.217-2.175-1.799c-0.121-0.095-0.242-0.192-0.364-0.287
				c-0.836-0.646-1.687-1.272-2.559-1.872l-3.462,3.463c1.716,1.137,3.357,2.375,4.922,3.701c0.076,0.065,0.15,0.131,0.225,0.195
				c0.688,0.59,1.358,1.198,2.013,1.822c0.097,0.091,0.192,0.182,0.287,0.274c2.155,2.086,4.129,4.357,5.895,6.79
				c0.108,0.148,0.212,0.297,0.318,0.446c0.473,0.666,0.93,1.341,1.37,2.029c0.107,0.167,0.217,0.333,0.322,0.501
				c0.497,0.798,0.979,1.605,1.434,2.431c0.018,0.032,0.039,0.065,0.057,0.099c0.485,0.883,0.943,1.783,1.377,2.697
				c0.067,0.142,0.127,0.286,0.192,0.428c0.343,0.739,0.669,1.487,0.978,2.245c0.104,0.255,0.203,0.513,0.305,0.771
				c0.264,0.682,0.513,1.37,0.748,2.064c0.088,0.258,0.18,0.515,0.263,0.775c0.278,0.863,0.536,1.734,0.769,2.616
				c0.021,0.074,0.044,0.147,0.063,0.222c0.249,0.959,0.465,1.931,0.66,2.911c0.052,0.267,0.095,0.536,0.143,0.804
				c0.13,0.716,0.247,1.436,0.347,2.162c0.048,0.334,0.09,0.669,0.129,1.006c0.083,0.704,0.148,1.414,0.203,2.126
				c0.025,0.312,0.055,0.62,0.072,0.932c0.059,1.014,0.098,2.033,0.098,3.06v16.449c2.576,3.545,4.254,7.783,4.691,12.389h0.115
				V86.277C145.805,85.167,145.764,84.069,145.701,82.976"/>
		</g>
		<g>
			<path fill="#EE6A56" d="M62.895,92.284c-1.328,0-2.402,1.076-2.402,2.403v45.66c0,1.327,1.074,2.403,2.402,2.403
				c1.329,0,2.404-1.076,2.404-2.403v-45.66C65.299,93.36,64.224,92.284,62.895,92.284 M115.765,92.284
				c-1.328,0-2.403,1.076-2.403,2.403v45.66c0,1.327,1.075,2.403,2.403,2.403s2.403-1.076,2.403-2.403v-45.66
				C118.168,93.36,117.093,92.284,115.765,92.284"/>
		</g>
		<g>
			<path fill="#86AEDD" d="M89.33,29.802c-10.091,0-19.557,2.659-27.755,7.298l3.535,3.536c7.227-3.843,15.466-6.027,24.22-6.027
				s16.994,2.185,24.219,6.027l3.535-3.536C108.887,32.461,99.422,29.802,89.33,29.802"/>
		</g>
		<g opacity="0.102">
			<g>
				<defs>
					<rect id="SVGID_1_" x="46.073" y="97.247" width="86.514" height="40.541"/>
				</defs>
				<clipPath id="SVGID_2_">
					<use xlink:href="#SVGID_1_"  overflow="visible"/>
				</clipPath>
				<g clip-path="url(#SVGID_2_)">
					<path fill="#010101" d="M55.686,116.315h-2.402v2.404h2.402V116.315z M50.88,121.122h-2.403v2.403h2.403V121.122z
						 M50.88,125.929h-2.403v2.403h2.403V125.929z M50.88,135.542h2.403v-2.404H50.88V135.542z M50.88,116.315h2.403v-2.402H50.88
						V116.315z M50.88,125.929h2.403v-2.403H50.88V125.929z M55.686,106.704h-2.402v2.402h2.402V106.704z M55.686,121.122h-2.402
						v2.403h2.402V121.122z M50.88,121.122h2.403v-2.402H50.88V121.122z M55.686,101.897h-2.402v2.402h2.402V101.897z
						 M55.686,111.51h-2.402v2.403h2.402V111.51z M50.88,130.735h2.403v-2.403H50.88V130.735z M48.477,133.138h2.403v-2.402h-2.403
						V133.138z M46.073,125.929h2.403v-2.403h-2.403V125.929z M55.686,137.791v-2.249h-2.402v1.802
						C54.07,137.534,54.867,137.694,55.686,137.791 M46.073,121.122h2.403v-2.402h-2.403V121.122z M46.073,134.003
						c0.765,0.559,1.562,1.074,2.403,1.524v-2.39h-2.403V134.003z M46.073,116.315h2.403v-2.402h-2.403V116.315z M50.88,136.601
						v-1.059h-2.378C49.265,135.947,50.062,136.292,50.88,136.601 M50.88,116.315h-2.403v2.404h2.403V116.315z M46.073,130.735
						h2.403v-2.403h-2.403V130.735z M55.686,125.929h-2.402v2.403h2.402V125.929z M46.073,111.51h2.403v-2.403h-2.403V111.51z
						 M50.88,106.704h-2.403v2.402h2.403V106.704z M50.88,111.51h-2.403v2.403h2.403V111.51z M50.88,101.897h-2.403v2.402h2.403
						V101.897z M46.073,106.704h2.403V104.3h-2.403V106.704z M46.073,101.032v0.865h2.403v-2.389
						C47.635,99.958,46.838,100.475,46.073,101.032 M55.686,130.735h-2.402v2.402h2.402V130.735z M127.78,104.3h-2.403v2.404h2.403
						V104.3z M127.78,113.913h-2.403v2.402h2.403V113.913z M127.78,109.106h-2.403v2.403h2.403V109.106z M122.975,109.106h2.402
						v-2.402h-2.402V109.106z M122.975,97.245v2.249h2.402v-1.802C124.59,97.501,123.793,97.341,122.975,97.245 M127.78,99.494
						h-2.403v2.403h2.403V99.494z M127.78,123.525h-2.403v2.403h2.403V123.525z M122.975,104.3h2.402v-2.402h-2.402V104.3z
						 M127.78,98.435v1.06h2.378C129.396,99.088,128.598,98.743,127.78,98.435 M50.88,111.51h2.403v-2.403H50.88V111.51z
						 M127.78,109.106h2.403v-2.402h-2.403V109.106z M127.78,113.913h2.403v-2.403h-2.403V113.913z M127.78,104.3h2.403v-2.402
						h-2.403V104.3z M132.587,101.032c-0.765-0.558-1.562-1.074-2.403-1.523v2.389h2.403V101.032z M127.78,118.72h2.403v-2.404
						h-2.403V118.72z M127.78,133.138h2.403v-2.402h-2.403V133.138z M127.78,128.332h2.403v-2.403h-2.403V128.332z M127.78,123.525
						h2.403v-2.403h-2.403V123.525z M127.78,128.332h-2.403v2.403h2.403V128.332z M127.78,118.72h-2.403v2.402h2.403V118.72z
						 M132.587,104.3h-2.403v2.404h2.403V104.3z M132.587,109.106h-2.403v2.403h2.403V109.106z M132.587,113.913h-2.403v2.402h2.403
						V113.913z M132.587,118.72h-2.403v2.402h2.403V118.72z M53.283,99.494h2.402v-2.249c-0.818,0.096-1.615,0.256-2.402,0.447
						V99.494z M50.88,101.897h2.403v-2.403H50.88V101.897z M132.587,123.525h-2.403v2.403h2.403V123.525z M50.88,106.704h2.403
						V104.3H50.88V106.704z M48.502,99.494h2.378v-1.06C50.062,98.743,49.265,99.088,48.502,99.494 M130.158,135.542h-2.378v1.059
						C128.598,136.292,129.396,135.947,130.158,135.542 M122.975,128.332h2.402v-2.403h-2.402V128.332z M122.975,133.138h2.402
						v-2.402h-2.402V133.138z M122.975,123.525h2.402v-2.403h-2.402V123.525z M122.975,118.72h2.402v-2.404h-2.402V118.72z
						 M132.587,128.332h-2.403v2.403h2.403V128.332z M122.975,113.913h2.402v-2.403h-2.402V113.913z M132.587,134.003v-0.865h-2.403
						v2.39C131.025,135.077,131.822,134.562,132.587,134.003 M122.975,137.791c0.818-0.097,1.615-0.257,2.402-0.447v-1.802h-2.402
						V137.791z M125.377,135.542h2.403v-2.404h-2.403V135.542z"/>
				</g>
			</g>
		</g>
		<g opacity="0.149">
			<g>
				<defs>
					<rect id="SVGID_3_" x="60.492" y="98.292" width="57.676" height="38.451"/>
				</defs>
				<clipPath id="SVGID_4_">
					<use xlink:href="#SVGID_3_"  overflow="visible"/>
				</clipPath>
				<g clip-path="url(#SVGID_4_)">
					<path fill="#323F4C" d="M60.492,100.696h4.807v-2.404h-4.807V100.696z M60.492,107.905h4.807v-2.403h-4.807V107.905z
						 M60.492,115.114h4.807v-2.402h-4.807V115.114z M60.492,122.323h4.807v-2.402h-4.807V122.323z M60.492,129.534h4.807v-2.404
						h-4.807V129.534z M60.492,136.743h4.807v-2.403h-4.807V136.743z M113.361,100.696h4.807v-2.404h-4.807V100.696z
						 M113.361,107.905h4.807v-2.403h-4.807V107.905z M113.361,115.114h4.807v-2.402h-4.807V115.114z M113.361,122.323h4.807v-2.402
						h-4.807V122.323z M113.361,129.534h4.807v-2.404h-4.807V129.534z M113.361,136.743h4.807v-2.403h-4.807V136.743z"/>
				</g>
			</g>
		</g>
		<g opacity="0.851">
			<g>
				<defs>
					<rect id="SVGID_5_" x="28.05" y="24.996" width="122.561" height="122.562"/>
				</defs>
				<clipPath id="SVGID_6_">
					<use xlink:href="#SVGID_5_"  overflow="visible"/>
				</clipPath>
				<g clip-path="url(#SVGID_6_)">
					<path fill="#010101" d="M89.33,24.996c-33.844,0-61.28,27.436-61.28,61.281v31.241c0,1.327,1.076,2.403,2.403,2.403h2.518
						c1.148,12.14,10.903,21.758,23.098,22.728c0.961,2.852,3.65,4.909,6.826,4.909c3.982,0,7.211-3.229,7.211-7.21v-45.66
						c0-3.981-3.229-7.209-7.211-7.209c-3.176,0-5.865,2.056-6.826,4.908c-5.12,0.407-9.797,2.353-13.6,5.355V86.277
						c0-25.881,20.98-46.862,46.861-46.862s46.861,20.981,46.861,46.862v11.465c-3.803-3.003-8.479-4.948-13.6-5.355
						c-0.96-2.853-3.652-4.908-6.827-4.908c-3.982,0-7.21,3.228-7.21,7.209v45.66c0,3.981,3.228,7.21,7.21,7.21
						c3.175,0,5.867-2.058,6.827-4.909c12.193-0.97,21.949-10.588,23.098-22.728h2.518c1.327,0,2.403-1.076,2.403-2.403V86.277
						C150.61,52.432,123.176,24.996,89.33,24.996 M60.492,94.688c0-1.327,1.076-2.403,2.402-2.403c1.328,0,2.404,1.076,2.404,2.403
						v45.66c0,1.327-1.076,2.403-2.404,2.403c-1.326,0-2.402-1.076-2.402-2.403V94.688z M118.168,140.348
						c0,1.327-1.076,2.403-2.403,2.403s-2.403-1.076-2.403-2.403v-45.66c0-1.327,1.076-2.403,2.403-2.403s2.403,1.076,2.403,2.403
						V140.348z M55.686,97.245v40.546c-10.147-1.191-18.023-9.807-18.023-20.273S45.538,98.436,55.686,97.245 M37.662,86.277v16.449
						c-2.576,3.545-4.255,7.783-4.691,12.389h-0.115V86.277c0-19.333,9.721-36.388,24.531-46.568l3.464,3.463
						C46.881,52.42,37.662,68.269,37.662,86.277 M113.549,40.636c-7.225-3.843-15.465-6.027-24.219-6.027s-16.994,2.185-24.22,6.027
						L61.574,37.1c8.199-4.639,17.665-7.298,27.756-7.298c10.09,0,19.557,2.659,27.754,7.298L113.549,40.636z M122.975,137.791
						V97.245c10.147,1.19,18.023,9.806,18.023,20.272S133.122,136.6,122.975,137.791 M145.805,86.277v28.837h-0.115
						c-0.438-4.605-2.115-8.844-4.691-12.389V86.277c0-18.008-9.219-33.857-23.188-43.105l3.462-3.463
						C136.086,49.889,145.805,66.944,145.805,86.277z"/>
				</g>
			</g>
		</g>
	</g>
	<g>
		<path d="M88.934,177.788c-23.755,0-46.088-9.25-62.886-26.047C9.251,134.943,0,112.61,0,88.855S9.251,42.767,26.048,25.97
			C42.846,9.172,65.179-0.078,88.934-0.078s46.088,9.25,62.886,26.048c16.797,16.797,26.048,39.131,26.048,62.886
			s-9.251,46.088-26.048,62.886C135.021,168.538,112.688,177.788,88.934,177.788z M88.934,8.175
			c-44.487,0-80.681,36.193-80.681,80.681c0,44.487,36.193,80.681,80.681,80.681s80.681-36.193,80.681-80.681
			C169.614,44.368,133.421,8.175,88.934,8.175z"/>
	</g>
</g>
</svg>
