<?xml version="1.0" encoding="utf-8"?>
<!-- Generator: Adobe Illustrator 16.0.0, SVG Export Plug-In . SVG Version: 6.00 Build 0)  -->
<!DOCTYPE svg PUBLIC "-//W3C//DTD SVG 1.1//EN" "http://www.w3.org/Graphics/SVG/1.1/DTD/svg11.dtd">
<svg version="1.1" id="Layer_1" xmlns="http://www.w3.org/2000/svg" xmlns:xlink="http://www.w3.org/1999/xlink" x="0px" y="0px"
	 width="102.519px" height="102.519px" viewBox="0 0 102.519 102.519" enable-background="new 0 0 102.519 102.519"
	 xml:space="preserve">
<g>
	<g>
		<path fill="#DA6262" d="M100.383,94.641c0,3.171-2.571,5.742-5.742,5.742H7.877c-3.171,0-5.742-2.571-5.742-5.742V7.877
			c0-3.171,2.571-5.742,5.742-5.742h86.763c3.171,0,5.742,2.571,5.742,5.742V94.641z"/>
		<path d="M94.641,102.519H7.877C3.534,102.519,0,98.985,0,94.641V7.877C0,3.534,3.534,0,7.877,0h86.763
			c4.344,0,7.878,3.534,7.878,7.877v86.763C102.519,98.985,98.984,102.519,94.641,102.519z M7.877,4.271
			c-1.988,0-3.606,1.618-3.606,3.606v86.763c0,1.988,1.618,3.606,3.606,3.606h86.763c1.988,0,3.606-1.618,3.606-3.606V7.877
			c0-1.988-1.618-3.606-3.606-3.606H7.877z"/>
	</g>
	<g>
		<g>
			<path fill="#FFFFFF" d="M48.997,41.875c-1.082,2.641-3.627,4.709-7.732,4.709c-5.123,0-8.655-3.691-8.655-9.037
				c0-0.859,0.095-1.973,0.255-2.927l0.509-2.864c1.114-6.205,4.932-9.833,10.182-9.833c4.201,0,6.746,2.832,7.033,5.441h0.254
				l0.732-4.295h7.063l-2.577,14.732c-0.031,0.286-0.127,0.955-0.127,1.463c0,1.368,1.05,2.259,2.481,2.259
				c2.546,0,4.71-2.259,5.601-8.082l0.096-0.796c0.158-0.827,0.19-2.609,0.19-3.627C64.302,19.823,56.983,14,46.61,14
				c-10.278,0-17.882,6.65-19.823,17.596l-0.191,1.05c-0.191,1.178-0.414,2.991-0.414,4.423c0,12.537,9.005,17.12,18.933,17.12
				c2.004,0,3.914-0.16,4.869-0.414l-0.923,5.441c-0.986,0.286-2.736,0.477-4.805,0.477c-13.874,0-24.597-7.287-24.597-22.21
				c0-1.75,0.286-3.882,0.509-5.314l0.255-1.464C22.809,16.642,33.15,8.336,46.673,8.336c14.383,0,23.993,8.814,23.993,20.206
				c0,1.336-0.064,3.341-0.255,4.518l-0.286,1.496c-1.432,8.528-6.873,12.283-12.601,12.283c-4.104,0-7.318-2.164-8.242-4.964
				H48.997z M40.564,34.811c-0.127,0.731-0.191,1.4-0.191,2.005c0,2.227,1.178,3.977,3.755,3.977c1.846,0,3.564-1.241,4.168-4.741
				l0.478-2.705c0.095-0.541,0.127-1.018,0.127-1.464c0-2.132-1.272-3.818-3.659-3.818c-2.1,0-3.723,1.687-4.391,5.123
				L40.564,34.811z"/>
		</g>
	</g>
	<g>
		<g>
			<path fill="#FFFFFF" d="M65.355,69.076l-1.687,6.205h6.109l-1.655,7.859h-6.141c-0.382,0.955-2.387,10.087-2.736,11.042h-8.242
				l2.736-11.042h-5.6c-0.382,0.955-2.355,10.087-2.736,11.042h-8.209l2.705-11.042h-5.982l1.654-7.859h6.046l1.686-6.205h-5.887
				l1.623-7.859h5.982L47.6,50.78h8.241l-2.609,10.437h5.601l2.514-10.437h8.241L67.01,61.217h6.236l-1.623,7.859H65.355z
				 M49.827,75.281h5.601l1.654-6.205h-5.568L49.827,75.281z"/>
		</g>
	</g>
</g>
</svg>
